<?xml version="1.0" encoding="UTF-8" standalone="no"?>
<!-- Created with Inkscape (http://www.inkscape.org/) -->

<svg
   version="1.1"
   id="svg1"
   width="391.16797"
   height="394.73511"
   viewBox="0 0 391.16797 394.73511"
   sodipodi:docname="logoVetorizada.svg"
   xml:space="preserve"
   inkscape:version="1.4.4 (dcaf3e7d9e, 2026-05-05)"
   xmlns:inkscape="http://www.inkscape.org/namespaces/inkscape"
   xmlns:sodipodi="http://sodipodi.sourceforge.net/DTD/sodipodi-0.dtd"
   xmlns="http://www.w3.org/2000/svg"
   xmlns:svg="http://www.w3.org/2000/svg"><sodipodi:namedview
     id="namedview1"
     pagecolor="#ffffff"
     bordercolor="#000000"
     borderopacity="0.25"
     inkscape:showpageshadow="2"
     inkscape:pageopacity="0.0"
     inkscape:pagecheckerboard="0"
     inkscape:deskcolor="#d1d1d1"
     inkscape:zoom="0.29666764"
     inkscape:cx="-338.76294"
     inkscape:cy="-2497.7446"
     inkscape:window-width="1920"
     inkscape:window-height="1131"
     inkscape:window-x="0"
     inkscape:window-y="0"
     inkscape:window-maximized="1"
     inkscape:current-layer="g1"
     showguides="true"><inkscape:page
       x="0"
       y="0"
       width="391.16797"
       height="394.73511"
       id="page2"
       margin="0"
       bleed="0" /></sodipodi:namedview><defs
     id="defs1"><linearGradient
       id="swatch19"
       inkscape:swatch="solid"><stop
         style="stop-color:#000000;stop-opacity:1;"
         offset="0"
         id="stop19" /></linearGradient></defs><g
     inkscape:groupmode="layer"
     inkscape:label="Image"
     id="g1"
     transform="translate(4499.7671,1537.8538)"><path
       id="path19"
       style="baseline-shift:baseline;display:inline;overflow:visible;opacity:1;vector-effect:none;fill:#000000;stroke-linecap:round;stroke-linejoin:round;stroke-miterlimit:3.5;paint-order:markers fill stroke;enable-background:accumulate;stop-color:#000000;stop-opacity:1"
       d="m -4462.7522,-1537.8512 a 5.4000001,5.4000001 0 0 0 -1.3906,0.2344 5.4000001,5.4000001 0 0 0 -3.1875,2.6328 5.4000001,5.4000001 0 0 0 2.2422,7.3008 c 54.2294,28.7509 71.8796,65.9596 85.664,105.8965 -1.3321,0.2712 -2.6783,0.6091 -4.039,1.0136 -23.49,-37.1152 -63.9992,-72.7262 -109.4883,-85.0839 a 5.4000001,5.4000001 0 0 0 -6.627,3.7949 5.4000001,5.4000001 0 0 0 3.7969,6.6269 c 41.286,11.2159 79.8383,44.4643 102.1602,78.836 -3.6926,1.9315 -7.4525,4.3455 -11.2559,7.2695 a 5.4005401,5.4005401 0 0 0 -0.1094,0.086 c -18.3083,14.8427 -29.9432,31.2893 -35.3867,46.4394 -5.4435,15.1502 -4.8554,29.5463 3.2109,38.9063 3.5614,4.1325 8.8379,5.7556 15.1914,6.5058 6.3536,0.7503 13.9475,0.2972 22.209,-1.7167 5.5703,-1.3579 11.4439,-3.4415 17.3809,-6.3809 4.2122,6.5358 8.8212,13.7503 14.3105,21.3887 l -10.1015,14.166 h -32.3614 a 5.4005401,5.4005401 0 0 0 -5.0273,3.4297 l -16.7969,42.8945 a 5.4000001,5.4000001 0 0 0 3.0606,6.998 5.4000001,5.4000001 0 0 0 6.9961,-3.0605 l 15.4531,-39.4629 h 31.457 a 5.4005401,5.4005401 0 0 0 4.3965,-2.2637 l 9.7305,-13.6445 c 11.9572,15.1853 27.8257,31.5654 50.9941,47.3594 l -17.0332,14.4961 a 5.4005401,5.4005401 0 0 0 -1.873,3.5781 l -3.1368,31.5059 a 5.4005401,5.4005401 0 0 0 1.6661,4.4609 l 28.3711,26.8047 a 5.4000001,5.4000001 0 0 0 7.6347,-0.2168 5.4000001,5.4000001 0 0 0 -0.2168,-7.6348 l -26.4453,-24.9824 2.6582,-26.7012 17.8203,-15.166 c 23.1157,14.3793 60.6313,33.3717 102.9727,44.0625 4.5979,1.1609 9.3234,2.2797 14.0801,3.3281 l -0.029,17.627 a 5.4005401,5.4005401 0 0 0 2.3339,4.4531 l 40.5762,27.9961 a 5.4000001,5.4000001 0 0 0 7.5117,-1.3789 5.4000001,5.4000001 0 0 0 -1.3769,-7.5117 l -38.2402,-26.3809 0.021,-12.5605 c 10.0437,1.9561 19.9034,3.4979 28.6739,4.3535 8.0259,0.783 15.1038,1.0174 20.8906,0.3398 0.07,-0.01 0.1297,-0.025 0.1992,-0.033 a 5.4000001,5.4000001 0 0 0 0.8926,-0.1523 c 2.4405,-0.3454 4.7002,-0.8359 6.7656,-1.7617 2.3808,-1.0672 4.82,-2.8793 5.9649,-5.8086 1.6436,-4.2057 1.0537,-8.6415 -0.4161,-13 -1.4698,-4.3585 -3.927,-8.8732 -7.1152,-13.6934 -6.3764,-9.6403 -15.7478,-20.4681 -26.5469,-31.6914 -9.0469,-9.4023 -19.0939,-19.06 -29.1601,-28.3301 l 0.1621,-98.0527 c 1.4257,-12.0114 -0.3763,-19.629 -5.5977,-23.7246 -2.6346,-2.0666 -5.852,-2.6999 -8.5215,-2.459 -2.6694,0.2409 -4.9134,1.1734 -6.7812,2.5078 a 5.4005401,5.4005401 0 0 0 -0.3984,0.3145 l -61.8926,53.6816 -0.025,0.022 c -0.5089,0.3772 -19.4013,14.4011 -36.0645,32.293 -4.0484,-4.1683 -8.0064,-8.4521 -11.8632,-12.8594 4.9895,-6.1934 10.0383,-14.1995 15.2343,-24.4687 7.2796,4.2917 14.7759,8.8091 22.1582,13.4062 4.0368,-3.3621 7.2415,-5.8641 9.0157,-7.2226 -12.1855,-7.6856 -17.274,-9.9146 -28.7715,-16.5411 a 5.4000001,5.4000001 0 0 0 -2.3438,-2.1757 5.4000001,5.4000001 0 0 0 -2.3301,-0.5118 c -17.8863,-10.198 -40.7792,-23.6995 -46.2714,-26.6035 -1.2749,-6.0415 -3.8802,-11.6105 -7.668,-16.2304 -5.5685,-6.7918 -13.8069,-11.433 -23.4766,-12.2129 -14.223,-41.6885 -33.6273,-83.8789 -91.7675,-114.7032 a 5.4000001,5.4000001 0 0 0 -2.7227,-0.6269 z m 92.2344,126.0195 c 7.4952,0.1895 13.2663,3.3528 17.3808,8.3711 2.9791,3.6335 5.0202,8.298 5.7969,13.4785 a 5.4000001,5.4000001 0 0 0 0.062,0.4375 c 1.2235,9.034 -1.3839,19.5782 -9.5273,28.9571 a 5.4005401,5.4005401 0 0 0 -0.1993,0.2422 c -8.0574,10.4498 -17.077,17.8746 -25.9902,22.9648 a 5.4000001,5.4000001 0 0 0 -0.4043,0.2305 c -6.5115,3.6685 -12.9574,6.0949 -18.9219,7.5488 -7.1245,1.7368 -13.5607,2.0538 -18.3828,1.4844 -4.8221,-0.5694 -7.8661,-2.3549 -8.2773,-2.8321 -4.521,-5.2459 -5.8469,-15.3492 -1.2285,-28.2031 4.6131,-12.8393 15.0004,-27.8814 31.9707,-41.6543 10.0645,-7.723 18.9388,-10.7883 26.1543,-11.0195 a 5.4000001,5.4000001 0 0 0 0.1445,0 c 0.4816,-0.013 0.9553,-0.014 1.4219,0 z m -12.5117,16.3887 a 15.085807,17.841718 22.685235 0 0 -11.254,5.7715 15.085807,17.841718 22.685235 0 0 -1.4375,24.6543 15.085807,17.841718 22.685235 0 0 21.9102,-1.3281 15.085807,17.841718 22.685235 0 0 1.4375,-24.6563 15.085807,17.841718 22.685235 0 0 -10.6562,-4.4414 z m 197.5214,0.2617 c 0.2538,8e-4 0.3775,0.06 0.5801,0.2188 0.5151,0.404 2.5015,3.6017 1.5762,12.998 -1.3116,1.8411 -20.9009,29.3205 -44.4102,60.3418 -15.4963,20.448 -30.171,40.5456 -43.1093,52.3535 -6.4692,5.904 -12.4538,9.5883 -17.2676,10.6661 -4.8139,1.0777 -8.5235,0.3012 -13.2422,-4.0606 -2.7227,-2.5168 -3.8673,-4.9828 -4.2344,-7.9863 -0.3671,-3.0035 0.2196,-6.6602 1.8027,-10.7715 3.1664,-8.2226 10.2697,-17.9217 18.4043,-26.8399 16.2693,-17.8362 36.2813,-32.7167 36.2813,-32.7167 a 5.4005401,5.4005401 0 0 0 0.3223,-0.2579 l 61.5839,-53.4101 c 0.295,-0.1929 0.9447,-0.4758 1.4082,-0.5176 0.1214,-0.011 0.2201,-0.018 0.3047,-0.018 z m -150.8847,13.7657 c 8.3885,4.537 22.5011,12.2847 38.4726,21.5273 -10.8087,21.4866 -20.3142,31.2286 -28.1992,35.3144 -8.4174,4.3618 -15.7877,3.1144 -24.4551,1.4063 a 5.4005401,5.4005401 0 0 0 -5.4414,2.1641 l -5.4297,7.6152 c -4.2441,-6.0906 -7.9927,-11.9465 -11.5488,-17.4688 8.4993,-5.5501 16.8683,-12.9982 24.4023,-22.7285 7.4401,-8.5994 11.3521,-18.3763 12.1993,-27.83 z m 152.9004,18.1425 -0.1192,71.8028 c -10.242,-9.1683 -20.131,-17.6829 -28.5976,-24.8438 -1.1928,-1.0088 -2.4323,-2.0292 -3.7129,-3.0605 12.9066,-17.1129 24.6249,-33.1284 32.4297,-43.8985 z m -127.7168,41.2539 c 3.9412,4.4755 7.9777,8.8209 12.0996,13.0489 1.8444,-2.2291 3.7641,-4.4212 5.7226,-6.5684 -8.609,9.4382 -16.4639,19.7449 -20.5039,30.2363 -2.02,5.2458 -3.098,10.6226 -2.4453,15.9629 0.2126,1.7395 0.6502,3.457 1.2656,5.1309 -0.048,-0.1301 -0.1167,-0.2542 -0.1621,-0.3848 -17.4652,-13.4093 -29.8041,-26.8796 -39.5117,-39.5937 l 5.5547,-7.7891 c 8.2266,1.4482 17.8718,2.2587 28.0391,-3.0098 3.3251,-1.723 6.6295,-4.0221 9.9414,-7.0332 z m 88.7714,11.2657 c 1.125,0.9068 2.2103,1.8028 3.254,2.6855 10.3784,8.7779 22.9131,19.6146 35.5488,31.1367 l -0.07,42.2305 c -22.1319,-13.597 -43.7383,-27.742 -64.0899,-43.4004 -1.2436,1.4795 -2.4849,2.9252 -3.7226,4.334 9.4793,-10.7907 19.1258,-23.7824 29.08,-36.9863 z m -32.5234,40.8144 c 22.6836,17.5189 46.7649,33.0582 71.2344,47.9219 l -0.027,16.8027 c -3.8705,-0.8722 -7.7093,-1.7905 -11.455,-2.7363 -37.7687,-9.5362 -72.0805,-26.1785 -94.6329,-39.5606 1.3632,-0.068 2.7213,-0.2524 4.0626,-0.5527 7.8077,-1.7481 14.9917,-6.6615 22.1874,-13.2285 2.8657,-2.6153 5.7415,-5.5165 8.6309,-8.6465 z m 82.1094,2.9981 c 7.4493,7.0179 14.7277,14.1393 21.4023,21.0761 10.5492,10.9637 19.593,21.4982 25.3223,30.1602 2.8646,4.331 4.8823,8.2034 5.8887,11.1875 0.9303,2.7587 0.8683,4.4537 0.6211,5.3183 -0.075,0.046 -0.09,0.066 -0.3536,0.1836 -0.5411,0.2426 -1.4492,0.5204 -2.6386,0.7559 -16.7933,-10.0095 -33.6634,-19.8346 -50.3067,-29.877 z m -141.4375,4.6035 c 0.087,0.1846 0.164,0.3717 0.2558,0.5547 -0.092,-0.1832 -0.169,-0.3699 -0.2558,-0.5547 z m 1.5488,2.8144 c 0.1027,0.1589 0.2193,0.3117 0.3262,0.4688 -0.107,-0.1573 -0.2234,-0.3098 -0.3262,-0.4688 z m 1.6172,2.1953 c 0.1655,0.2025 0.3308,0.4049 0.5039,0.6036 -0.1733,-0.1989 -0.3382,-0.4008 -0.5039,-0.6036 z m 138.1875,41.8106 c 9.6306,5.7615 19.2982,11.449 28.9414,17.1406 -8.7064,-0.8841 -18.7427,-2.5018 -28.9629,-4.543 z" /></g></svg>
